HIERARCHY
ROOT Hips
{
	OFFSET -395.192444 -564.882874 89.113342
	CHANNELS 6 Xposition Yposition Zposition Zrotation Yrotation Xrotation
	JOINT Spine
	{
		OFFSET 0.000000 2.080078 8.814247
		CHANNELS 6 Xposition Yposition Zposition Zrotation Yrotation Xrotation
		JOINT Spine1
		{
			OFFSET 0.000000 0.000000 8.844139
			CHANNELS 6 Xposition Yposition Zposition Zrotation Yrotation Xrotation
			JOINT Spine2
			{
				OFFSET 0.000000 0.000000 11.682266
				CHANNELS 6 Xposition Yposition Zposition Zrotation Yrotation Xrotation
				JOINT Spine3
				{
					OFFSET 0.000000 0.000000 11.746704
					CHANNELS 6 Xposition Yposition Zposition Zrotation Yrotation Xrotation
					JOINT Neck
					{
						OFFSET 0.000000 0.000000 17.658264
						CHANNELS 6 Xposition Yposition Zposition Zrotation Yrotation Xrotation
						JOINT Neck1
						{
							OFFSET 0.000000 0.000000 5.101517
							CHANNELS 6 Xposition Yposition Zposition Zrotation Yrotation Xrotation
							JOINT Head
							{
								OFFSET 0.000000 0.000000 5.101517
								CHANNELS 6 Xposition Yposition Zposition Zrotation Yrotation Xrotation
								JOINT HeadEnd
								{
									OFFSET 0.000000 0.000000 11.655090
									CHANNELS 6 Xposition Yposition Zposition Zrotation Yrotation Xrotation
									End Site
									{
										OFFSET 0.000000 0.000000 0.100006
									}
								}
							}
						}
					}
					JOINT RightShoulder
					{
						OFFSET -2.625397 0.000000 11.175217
						CHANNELS 6 Xposition Yposition Zposition Zrotation Yrotation Xrotation
						JOINT RightArm
						{
							OFFSET 0.000000 0.000000 10.434708
							CHANNELS 6 Xposition Yposition Zposition Zrotation Yrotation Xrotation
							JOINT RightForeArm
							{
								OFFSET 0.000000 0.000000 29.628418
								CHANNELS 6 Xposition Yposition Zposition Zrotation Yrotation Xrotation
								JOINT RightHand
								{
									OFFSET 0.000000 0.000000 22.857605
									CHANNELS 6 Xposition Yposition Zposition Zrotation Yrotation Xrotation
									JOINT RightHandThumb1
									{
										OFFSET -2.867310 -2.944275 3.959564
										CHANNELS 6 Xposition Yposition Zposition Zrotation Yrotation Xrotation
										JOINT RightHandThumb2
										{
											OFFSET 0.000000 0.000000 3.350403
											CHANNELS 6 Xposition Yposition Zposition Zrotation Yrotation Xrotation
											JOINT RightHandThumb3
											{
												OFFSET 0.000000 0.000000 3.756516
												CHANNELS 6 Xposition Yposition Zposition Zrotation Yrotation Xrotation
												JOINT RightHandThumb4
												{
													OFFSET 0.000000 0.000000 3.147339
													CHANNELS 6 Xposition Yposition Zposition Zrotation Yrotation Xrotation
													End Site
													{
														OFFSET 0.000000 0.000000 0.100006
													}
												}
											}
										}
									}
									JOINT RightHandIndex1
									{
										OFFSET -0.086761 -2.345276 10.030899
										CHANNELS 6 Xposition Yposition Zposition Zrotation Yrotation Xrotation
										JOINT RightHandIndex2
										{
											OFFSET 0.000000 0.000000 4.061096
											CHANNELS 6 Xposition Yposition Zposition Zrotation Yrotation Xrotation
											JOINT RightHandIndex3
											{
												OFFSET 0.000000 0.000000 3.248871
												CHANNELS 6 Xposition Yposition Zposition Zrotation Yrotation Xrotation
												JOINT RightHandIndex4
												{
													OFFSET 0.000000 0.000000 2.639709
													CHANNELS 6 Xposition Yposition Zposition Zrotation Yrotation Xrotation
													End Site
													{
														OFFSET 0.000000 0.000000 0.100006
													}
												}
											}
										}
									}
									JOINT RightHandMiddle1
									{
										OFFSET 0.104095 -0.006775 9.502945
										CHANNELS 6 Xposition Yposition Zposition Zrotation Yrotation Xrotation
										JOINT RightHandMiddle2
										{
											OFFSET 0.000000 0.000000 4.568726
											CHANNELS 6 Xposition Yposition Zposition Zrotation Yrotation Xrotation
											JOINT RightHandMiddle3
											{
												OFFSET 0.000000 0.000000 3.654984
												CHANNELS 6 Xposition Yposition Zposition Zrotation Yrotation Xrotation
												JOINT RightHandMiddle4
												{
													OFFSET 0.000000 0.000000 2.741241
													CHANNELS 6 Xposition Yposition Zposition Zrotation Yrotation Xrotation
													End Site
													{
														OFFSET 0.000000 0.000000 0.100006
													}
												}
											}
										}
									}
									JOINT RightHandRing1
									{
										OFFSET 0.086761 2.267456 8.921707
										CHANNELS 6 Xposition Yposition Zposition Zrotation Yrotation Xrotation
										JOINT RightHandRing2
										{
											OFFSET 0.000000 0.000000 4.061096
											CHANNELS 6 Xposition Yposition Zposition Zrotation Yrotation Xrotation
											JOINT RightHandRing3
											{
												OFFSET 0.000000 0.000000 3.654984
												CHANNELS 6 Xposition Yposition Zposition Zrotation Yrotation Xrotation
												JOINT RightHandRing4
												{
													OFFSET 0.000000 0.000000 2.741241
													CHANNELS 6 Xposition Yposition Zposition Zrotation Yrotation Xrotation
													End Site
													{
														OFFSET 0.000000 0.000000 0.100006
													}
												}
											}
										}
									}
									JOINT RightHandPinky1
									{
										OFFSET -0.173492 4.467224 7.976990
										CHANNELS 6 Xposition Yposition Zposition Zrotation Yrotation Xrotation
										JOINT RightHandPinky2
										{
											OFFSET 0.000000 0.000000 3.350403
											CHANNELS 6 Xposition Yposition Zposition Zrotation Yrotation Xrotation
											JOINT RightHandPinky3
											{
												OFFSET 0.000000 0.000000 2.842758
												CHANNELS 6 Xposition Yposition Zposition Zrotation Yrotation Xrotation
												JOINT RightHandPinky4
												{
													OFFSET 0.000000 0.000000 2.639709
													CHANNELS 6 Xposition Yposition Zposition Zrotation Yrotation Xrotation
													End Site
													{
														OFFSET 0.000000 0.000000 0.100006
													}
												}
											}
										}
									}
									JOINT RightForeArmEnd
									{
										OFFSET 0.000000 0.000000 0.000000
										CHANNELS 6 Xposition Yposition Zposition Zrotation Yrotation Xrotation
										End Site
										{
											OFFSET 0.000000 0.000000 0.100006
										}
									}
								}
								JOINT RightArmEnd
								{
									OFFSET 0.000000 0.000000 0.000000
									CHANNELS 6 Xposition Yposition Zposition Zrotation Yrotation Xrotation
									End Site
									{
										OFFSET 0.000000 0.000000 0.100006
									}
								}
							}
						}
					}
					JOINT LeftShoulder
					{
						OFFSET 2.625397 0.000000 11.175217
						CHANNELS 6 Xposition Yposition Zposition Zrotation Yrotation Xrotation
						JOINT LeftArm
						{
							OFFSET 0.000000 0.000000 10.813629
							CHANNELS 6 Xposition Yposition Zposition Zrotation Yrotation Xrotation
							JOINT LeftForeArm
							{
								OFFSET 0.000000 0.000000 28.724777
								CHANNELS 6 Xposition Yposition Zposition Zrotation Yrotation Xrotation
								JOINT LeftHand
								{
									OFFSET 0.644379 0.328857 25.716171
									CHANNELS 6 Xposition Yposition Zposition Zrotation Yrotation Xrotation
									JOINT LeftHandThumb1
									{
										OFFSET 2.867310 -2.944275 3.959564
										CHANNELS 6 Xposition Yposition Zposition Zrotation Yrotation Xrotation
										JOINT LeftHandThumb2
										{
											OFFSET 0.000000 0.000000 3.350403
											CHANNELS 6 Xposition Yposition Zposition Zrotation Yrotation Xrotation
											JOINT LeftHandThumb3
											{
												OFFSET 0.000000 0.000000 3.756516
												CHANNELS 6 Xposition Yposition Zposition Zrotation Yrotation Xrotation
												JOINT LeftHandThumb4
												{
													OFFSET 0.000000 0.000000 3.100006
													CHANNELS 6 Xposition Yposition Zposition Zrotation Yrotation Xrotation
													End Site
													{
														OFFSET 0.000000 0.000000 0.100006
													}
												}
											}
										}
									}
									JOINT LeftHandIndex1
									{
										OFFSET 0.086761 -2.345276 10.030899
										CHANNELS 6 Xposition Yposition Zposition Zrotation Yrotation Xrotation
										JOINT LeftHandIndex2
										{
											OFFSET 0.000000 0.000000 4.061096
											CHANNELS 6 Xposition Yposition Zposition Zrotation Yrotation Xrotation
											JOINT LeftHandIndex3
											{
												OFFSET 0.000000 0.000000 3.248871
												CHANNELS 6 Xposition Yposition Zposition Zrotation Yrotation Xrotation
												JOINT LeftHandIndex4
												{
													OFFSET 0.000000 0.000000 2.639709
													CHANNELS 6 Xposition Yposition Zposition Zrotation Yrotation Xrotation
													End Site
													{
														OFFSET 0.000000 0.000000 0.100006
													}
												}
											}
										}
									}
									JOINT LeftHandMiddle1
									{
										OFFSET -0.104095 -0.006775 9.502945
										CHANNELS 6 Xposition Yposition Zposition Zrotation Yrotation Xrotation
										JOINT LeftHandMiddle2
										{
											OFFSET 0.000000 0.000000 4.568726
											CHANNELS 6 Xposition Yposition Zposition Zrotation Yrotation Xrotation
											JOINT LeftHandMiddle3
											{
												OFFSET 0.000000 0.000000 3.654984
												CHANNELS 6 Xposition Yposition Zposition Zrotation Yrotation Xrotation
												JOINT LeftHandMiddle4
												{
													OFFSET 0.000000 0.000000 2.741241
													CHANNELS 6 Xposition Yposition Zposition Zrotation Yrotation Xrotation
													End Site
													{
														OFFSET 0.000000 0.000000 0.100006
													}
												}
											}
										}
									}
									JOINT LeftHandRing1
									{
										OFFSET -0.086761 2.267456 8.921707
										CHANNELS 6 Xposition Yposition Zposition Zrotation Yrotation Xrotation
										JOINT LeftHandRing2
										{
											OFFSET 0.000000 0.000000 4.061096
											CHANNELS 6 Xposition Yposition Zposition Zrotation Yrotation Xrotation
											JOINT LeftHandRing3
											{
												OFFSET 0.000000 0.000000 3.654984
												CHANNELS 6 Xposition Yposition Zposition Zrotation Yrotation Xrotation
												JOINT LeftHandRing4
												{
													OFFSET 0.000000 0.000000 2.741241
													CHANNELS 6 Xposition Yposition Zposition Zrotation Yrotation Xrotation
													End Site
													{
														OFFSET 0.000000 0.000000 0.100006
													}
												}
											}
										}
									}
									JOINT LeftHandPinky1
									{
										OFFSET 0.173492 4.467224 7.976990
										CHANNELS 6 Xposition Yposition Zposition Zrotation Yrotation Xrotation
										JOINT LeftHandPinky2
										{
											OFFSET 0.000000 0.000000 3.350403
											CHANNELS 6 Xposition Yposition Zposition Zrotation Yrotation Xrotation
											JOINT LeftHandPinky3
											{
												OFFSET 0.000000 0.000000 2.842758
												CHANNELS 6 Xposition Yposition Zposition Zrotation Yrotation Xrotation
												JOINT LeftHandPinky4
												{
													OFFSET 0.000000 0.000000 2.639709
													CHANNELS 6 Xposition Yposition Zposition Zrotation Yrotation Xrotation
													End Site
													{
														OFFSET 0.000000 0.000000 0.100006
													}
												}
											}
										}
									}
									JOINT LeftForeArmEnd
									{
										OFFSET 0.000000 0.000000 0.000000
										CHANNELS 6 Xposition Yposition Zposition Zrotation Yrotation Xrotation
										End Site
										{
											OFFSET 0.000000 0.000000 0.100006
										}
									}
								}
								JOINT LeftArmEnd
								{
									OFFSET 0.000000 0.000000 0.000000
									CHANNELS 6 Xposition Yposition Zposition Zrotation Yrotation Xrotation
									End Site
									{
										OFFSET 0.000000 0.000000 0.100006
									}
								}
							}
						}
					}
				}
			}
		}
	}
	JOINT RightUpLeg
	{
		OFFSET -11.289948 0.000000 0.000000
		CHANNELS 6 Xposition Yposition Zposition Zrotation Yrotation Xrotation
		JOINT RightLeg
		{
			OFFSET 0.000000 0.000000 -38.200329
			CHANNELS 6 Xposition Yposition Zposition Zrotation Yrotation Xrotation
			JOINT RightFoot
			{
				OFFSET 0.000000 0.000000 -39.900856
				CHANNELS 6 Xposition Yposition Zposition Zrotation Yrotation Xrotation
				JOINT RightToeBase
				{
					OFFSET 0.000000 -15.261658 0.000001
					CHANNELS 6 Xposition Yposition Zposition Zrotation Yrotation Xrotation
					JOINT RightToeBaseEnd
					{
						OFFSET 0.000000 -7.370728 0.000001
						CHANNELS 6 Xposition Yposition Zposition Zrotation Yrotation Xrotation
						End Site
						{
							OFFSET 0.000000 0.000000 0.100000
						}
					}
				}
				JOINT RightLegEnd
				{
					OFFSET 0.000000 0.000000 0.000000
					CHANNELS 6 Xposition Yposition Zposition Zrotation Yrotation Xrotation
					End Site
					{
						OFFSET 0.000000 0.000000 0.100000
					}
				}
			}
			JOINT RightUpLegEnd
			{
				OFFSET 0.000000 0.000000 0.000000
				CHANNELS 6 Xposition Yposition Zposition Zrotation Yrotation Xrotation
				End Site
				{
					OFFSET 0.000000 0.000000 0.099998
				}
			}
		}
	}
	JOINT LeftUpLeg
	{
		OFFSET 11.315674 0.000000 0.000000
		CHANNELS 6 Xposition Yposition Zposition Zrotation Yrotation Xrotation
		JOINT LeftLeg
		{
			OFFSET 0.000000 0.000000 -38.200329
			CHANNELS 6 Xposition Yposition Zposition Zrotation Yrotation Xrotation
			JOINT LeftFoot
			{
				OFFSET 0.000000 0.000000 -39.900856
				CHANNELS 6 Xposition Yposition Zposition Zrotation Yrotation Xrotation
				JOINT LeftToeBase
				{
					OFFSET 0.000000 -15.261658 0.000001
					CHANNELS 6 Xposition Yposition Zposition Zrotation Yrotation Xrotation
					JOINT LeftToeBaseEnd
					{
						OFFSET 0.000000 -7.539978 0.000001
						CHANNELS 6 Xposition Yposition Zposition Zrotation Yrotation Xrotation
						End Site
						{
							OFFSET 0.000000 0.000000 0.100000
						}
					}
				}
				JOINT LeftLegEnd
				{
					OFFSET 0.000000 0.000000 0.000000
					CHANNELS 6 Xposition Yposition Zposition Zrotation Yrotation Xrotation
					End Site
					{
						OFFSET 0.000000 0.000000 0.100000
					}
				}
			}
			JOINT LeftUpLegEnd
			{
				OFFSET 0.000000 0.000000 0.000000
				CHANNELS 6 Xposition Yposition Zposition Zrotation Yrotation Xrotation
				End Site
				{
					OFFSET 0.000000 0.000000 0.099998
				}
			}
		}
	}
}
MOTION
Frames: 2
Frame Time: 0.016667
0.950592 -8.977478 85.520988 25.071111 -0.992322 -17.985664 -0.000020 2.080101 8.814245 -1.026247 -2.457182 15.292025 -0.000028 -0.000010 8.844141 -0.333462 0.713893 9.074510 -0.000026 -0.000057 11.682263 -5.306337 0.881182 12.021861 0.000008 -0.000110 11.746746 -2.532288 1.719335 5.965151 -0.000013 -0.000066 17.658283 -7.634277 -6.578092 1.975386 -0.000001 -0.000051 5.101547 -5.692502 1.308448 -6.251664 0.000010 -0.000062 5.101596 -1.142966 -0.122512 -19.268898 -0.000002 -0.000060 11.655090 -0.000000 0.000000 -0.000000 -2.625416 -0.000069 11.175242 15.531726 -86.995573 0.422298 0.000000 -0.000092 10.434666 -24.731242 -54.494978 46.890533 -0.000008 -0.000061 29.628384 25.782222 1.307797 45.678741 0.000000 -0.000023 22.857628 71.508406 -22.255663 -10.392179 -2.867283 -2.944290 3.959534 31.505525 -20.507756 46.755756 -0.000076 -0.000015 3.350441 -19.905726 10.502772 -34.711025 -0.000019 -0.000038 3.756565 -13.142734 8.611701 -23.662794 -0.000000 -0.000078 3.147346 0.000002 -0.000002 0.000001 -0.086784 -2.345278 10.030869 -19.461104 -38.656395 18.499834 -0.000037 -0.000081 4.061108 -0.641882 -28.840686 4.438721 -0.000002 -0.000082 3.248863 -1.141889 -28.840583 4.438721 -0.000007 0.000029 2.639721 -0.000004 0.000001 -0.000002 0.104080 -0.006767 9.502876 -14.112162 -42.252797 13.959871 -0.000006 -0.000033 4.568743 0.012723 -30.637179 1.778756 -0.000055 -0.000039 3.655008 -0.487262 -30.637247 1.778740 -0.000011 -0.000007 2.741251 0.000000 -0.000002 0.000002 0.086727 2.267483 8.921669 -7.313352 -57.301551 13.629860 -0.000051 -0.000058 4.061136 0.073349 -40.036353 -2.945595 -0.000037 -0.000061 3.655020 1.073375 -40.036298 -2.945582 -0.000002 -0.000003 2.741241 0.000001 -0.000002 0.000000 -0.173500 4.467236 7.976954 9.826286 -69.108633 3.506268 -0.000034 -0.000049 3.350441 2.848195 -45.676753 -11.480115 -0.000027 -0.000061 2.842804 4.848171 -45.676767 -11.480085 -0.000032 0.000000 2.639710 0.000001 0.000001 0.000003 -0.000003 -0.000030 0.000017 -0.000005 -0.000002 0.000000 -0.000016 -0.000078 0.000047 0.000002 0.000003 0.000002 2.625412 -0.000079 11.175208 -15.856093 83.854431 -0.309591 -0.000011 -0.000085 10.813644 38.976854 53.513504 38.948498 -0.000015 -0.000031 28.724762 -20.338302 0.503925 50.992676 0.644382 0.328907 25.716156 -18.124966 6.764567 -9.144679 2.867283 -2.944321 3.959564 -31.499180 20.323421 47.017769 -0.000015 -0.000008 3.350449 19.492962 -10.426666 -34.046208 -0.000034 -0.000031 3.756512 12.873022 -8.506279 -23.213086 -0.000038 -0.000006 3.099993 0.000001 -0.000000 0.000001 0.086773 -2.345352 10.030914 -2.732258 38.243913 -6.310274 -0.000015 -0.000016 4.061089 -0.509230 27.283023 -4.156768 0.000004 -0.000007 3.248871 -1.009241 27.283018 -4.156778 0.000003 0.000002 2.639729 0.000000 -0.000001 -0.000001 -0.104065 -0.006816 9.502972 3.851203 39.621770 -1.529881 -0.000017 -0.000027 4.568717 0.095143 28.211553 -1.611046 0.000004 -0.000005 3.655043 -0.404865 28.211547 -1.611054 -0.000012 -0.000007 2.741268 0.000001 0.000000 0.000000 -0.086739 2.267397 8.921761 18.981371 49.190411 14.125583 -0.000011 -0.000011 4.061125 -0.186815 35.734880 2.522182 0.000021 -0.000019 3.655003 0.813180 35.734880 2.522185 -0.000002 -0.000013 2.741264 0.000001 -0.000001 0.000001 0.173538 4.467181 7.977036 36.489883 51.880379 34.516754 -0.000027 -0.000012 3.350426 1.525070 40.466101 9.544727 -0.000034 -0.000002 2.842766 3.525088 40.466091 9.544739 -0.000072 -0.000061 2.639750 0.000002 0.000003 0.000001 0.000030 -0.000058 0.000032 -0.000000 -0.000000 -0.000004 -0.000003 -0.000003 0.000001 0.000000 -0.000001 0.000001 -11.289999 -0.000038 0.000002 -13.808406 6.016439 0.362105 -0.000037 -0.000042 -38.200401 0.016148 -0.010742 33.614127 -0.000069 0.000014 -39.900856 -17.867660 -2.326430 8.549075 -0.000023 -15.261608 0.000010 1.596395 0.595625 -16.126765 -0.000037 -7.370795 0.000000 0.000001 -0.000000 0.000000 -0.000036 -0.000120 0.000000 -0.000000 -0.000001 -0.000001 -0.000047 -0.000002 0.000009 0.000000 0.000001 -0.000003 11.315638 -0.000052 -0.000008 -6.687893 -15.737295 6.109662 -0.000008 -0.000038 -38.200375 0.520849 -0.580661 48.106180 -0.000066 -0.000120 -39.900879 5.194281 3.921541 22.836647 0.000005 -15.261721 0.000040 -0.750091 0.358478 -22.122626 0.000004 -7.539956 0.000002 -0.000003 0.000000 -0.000000 -0.000000 -0.000068 -0.000004 0.000001 0.000000 0.000000 -0.000020 -0.000055 0.000003 -0.000001 0.000001 0.000001 
0.948273 -9.572937 85.668907 24.025884 -0.872261 -18.332578 -0.000015 2.079988 8.814241 -1.045783 -2.575444 15.235237 0.000003 -0.000018 8.844132 -0.350344 0.708702 8.950742 -0.000026 -0.000072 11.682249 -5.150774 0.863275 11.932525 -0.000010 -0.000135 11.746716 -2.480467 1.648860 5.970751 -0.000040 -0.000033 17.658289 -7.258800 -6.303448 2.414884 -0.000045 -0.000042 5.101560 -5.470467 1.334522 -5.960751 -0.000039 -0.000054 5.101531 -1.124368 -0.126448 -19.425201 -0.000002 -0.000061 11.655089 0.000000 -0.000000 0.000000 -2.625418 -0.000084 11.175233 15.637320 -87.001058 0.445550 -0.000061 -0.000061 10.434673 -23.342564 -53.440380 46.103077 -0.000004 -0.000069 29.628338 25.203948 1.353635 46.950901 0.000000 -0.000015 22.857582 71.732566 -22.315594 -10.283626 -2.867249 -2.944305 3.959488 31.499183 -20.323434 47.017748 -0.000015 -0.000038 3.350449 -19.492942 10.426684 -34.046167 -0.000050 -0.000046 3.756561 -12.873054 8.506289 -23.213136 0.000041 -0.000049 3.147363 -0.000001 0.000001 -0.000005 -0.086823 -2.345291 10.030884 -18.728604 -37.047960 17.872262 -0.000024 -0.000058 4.061131 -0.539863 -27.653971 4.223175 -0.000048 -0.000084 3.248882 -1.039858 -27.653976 4.223173 -0.000036 -0.000001 2.639718 0.000001 0.000001 -0.000000 0.104092 -0.006760 9.502884 -13.589248 -40.947083 13.551777 -0.000010 -0.000070 4.568742 0.046335 -29.684026 1.711884 -0.000036 -0.000088 3.654982 -0.453697 -29.684081 1.711883 -0.000041 0.000009 2.741236 -0.000001 -0.000000 0.000002 0.086735 2.267445 8.921692 -7.143563 -56.845352 13.641673 -0.000057 -0.000052 4.061119 0.051211 -39.704115 -2.911022 -0.000028 -0.000081 3.655020 1.051250 -39.704112 -2.911064 -0.000008 0.000008 2.741245 -0.000001 0.000003 -0.000000 -0.173515 4.467260 7.976959 9.910715 -69.271034 3.145768 -0.000069 -0.000075 3.350441 2.892067 -45.827175 -11.541359 -0.000042 -0.000072 2.842758 4.892074 -45.827199 -11.541373 -0.000031 0.000027 2.639697 -0.000003 0.000002 0.000003 -0.000045 -0.000056 0.000011 0.000003 -0.000003 -0.000003 -0.000036 -0.000063 0.000028 -0.000001 0.000001 0.000001 2.625381 -0.000072 11.175247 -15.612863 83.933271 -0.309970 0.000038 -0.000039 10.813629 38.454009 54.202138 37.796990 0.000046 -0.000061 28.724766 -20.688411 0.550737 50.104994 0.644402 0.328949 25.716164 -18.867038 6.481344 -9.072967 2.867290 -2.944305 3.959564 -31.499193 20.323428 47.017725 -0.000031 -0.000053 3.350418 19.492924 -10.426685 -34.046140 -0.000034 0.000015 3.756500 12.873062 -8.506276 -23.213113 -0.000032 0.000006 3.100007 0.000000 0.000001 -0.000001 0.086765 -2.345350 10.030937 -2.876774 37.333063 -5.803322 -0.000015 0.000001 4.061146 -0.454017 26.595577 -4.034898 0.000014 0.000002 3.248920 -0.954012 26.595573 -4.034899 -0.000022 0.000006 2.639707 -0.000000 -0.000000 0.000000 -0.104080 -0.006813 9.502973 3.604987 38.568770 -1.345595 -0.000014 0.000008 4.568748 0.118935 27.450885 -1.560055 -0.000000 0.000020 3.655026 -0.381054 27.450887 -1.560063 -0.000032 -0.000010 2.741248 0.000002 -0.000000 0.000001 -0.086746 2.267384 8.921700 18.060774 47.562661 13.025155 0.000041 -0.000010 4.061115 -0.251681 34.502397 2.409417 -0.000028 0.000006 3.654999 0.748283 34.502403 2.409405 -0.000006 0.000002 2.741259 -0.000001 -0.000000 0.000001 0.173500 4.467170 7.977020 34.631081 50.202324 31.641702 -0.000027 -0.000010 3.350426 1.191808 38.896961 9.022846 -0.000063 0.000021 2.842796 3.191815 38.896981 9.022856 -0.000019 -0.000066 2.639724 0.000000 0.000001 -0.000001 -0.000034 -0.000068 0.000023 -0.000000 -0.000000 0.000005 0.000004 0.000004 -0.000003 -0.000002 -0.000001 0.000001 -11.290030 -0.000085 0.000013 -13.073632 5.631776 1.565992 -0.000021 -0.000089 -38.200390 -0.002390 0.001530 32.704086 -0.000063 -0.000036 -39.900864 -17.606455 -2.117250 8.596034 -0.000068 -15.261610 0.000007 1.546729 0.601445 -16.259831 0.000000 -7.370790 0.000002 0.000000 -0.000000 -0.000000 -0.000011 -0.000060 0.000001 -0.000000 -0.000000 0.000001 -0.000020 -0.000061 -0.000006 0.000000 0.000000 -0.000001 11.315691 -0.000093 -0.000015 -5.751739 -15.826622 5.637247 -0.000013 -0.000037 -38.200413 0.441936 -0.486433 47.743395 0.000015 -0.000118 -39.900871 6.514833 3.696097 22.348217 -0.000016 -15.261757 0.000039 -0.523221 -0.207118 -21.090461 0.000004 -7.540023 0.000001 -0.000002 -0.000002 0.000000 0.000000 -0.000018 -0.000003 0.000003 0.000001 -0.000001 -0.000005 -0.000005 -0.000001 0.000001 -0.000001 0.000001 
